<svg viewBox="0 0 96 96" xmlns="http://www.w3.org/2000/svg">
  <defs>
    <linearGradient id="bg" x1="0%" y1="0%" x2="100%" y2="100%">
      <stop offset="0%" stop-color="#7dd3fc" />
      <stop offset="100%" stop-color="#4f46e5" />
    </linearGradient>
    <linearGradient id="face" x1="0%" y1="0%" x2="100%" y2="100%">
      <stop offset="0%" stop-color="#ffffff" />
      <stop offset="100%" stop-color="#e0f2fe" />
    </linearGradient>
  </defs>
  <rect x="8" y="8" width="80" height="80" rx="26" fill="url(#bg)" />
  <circle cx="37" cy="42" r="5" fill="#1d4ed8" />
  <circle cx="59" cy="42" r="5" fill="#1d4ed8" />
  <path d="M34 58c4 6 24 6 28 0" fill="none" stroke="#1e3a8a" stroke-linecap="round" stroke-width="4" />
  <path d="M70 22l4 8 8 4-8 4-4 8-4-8-8-4 8-4 4-8z" fill="#fef08a" stroke="#ffffff" stroke-width="2" />
  <path d="M24 22l2.5 5 5 2.5-5 2.5-2.5 5-2.5-5-5-2.5 5-2.5 2.5-5z" fill="url(#face)" opacity=".95" />
</svg>
